<?xml version="1.0" encoding="UTF-8"?>
<svg id="Layer_2" data-name="Layer 2" xmlns="http://www.w3.org/2000/svg" viewBox="0 0 956.88 535.39">
  <defs>
    <style>
      .cls-1 {
        fill: red;
      }

      .cls-1, .cls-2, .cls-3, .cls-4 {
        stroke-width: 0px;
      }

      .cls-2 {
        fill: #fff;
      }

      .cls-3 {
        fill-rule: evenodd;
      }

      .cls-3, .cls-4 {
        fill: #0164ff;
      }
    </style>
  </defs>
  <g id="Layer_1-2" data-name="Layer 1">
    <g>
      <g>
        <path class="cls-2" d="m599.66,412.85l-8.96-18.89h15.4l4.17,10.89,11.16-10.89h16.06l-22.05,19.21,8.75,19.21h-15.27l-4.38-10.94-11.21,10.94h-15.92l22.25-19.53Z"/>
        <path class="cls-2" d="m736.27,396.52c-1.49-1.71-3.75-2.56-6.77-2.56h-32.9l-13.3,38.42h12.9l4.34-12.59h6.25l6.72,12.59h14.81l-7.97-12.59h.26c3.73,0,6.74-.86,9.05-2.59,2.3-1.72,3.88-3.78,4.73-6.16l2.86-8.32c.84-2.42.52-4.48-.97-6.19Zm-12.37,7.42l-2.17,6.3c-.14.46-.49.69-1.06.69h-17.04l1.3-3.78-4.29-3.89h5.64s17.04-.01,17.04-.01c.57,0,.76.23.58.69Z"/>
        <polygon class="cls-2" points="642.97 393.96 639.76 403.25 655.68 403.25 645.6 432.38 658.5 432.38 667.15 407.39 662.59 403.26 668.57 403.26 668.58 403.25 684.5 403.25 687.72 393.96 642.97 393.96"/>
        <path class="cls-2" d="m795.81,393.96h10.92l6.82,22.41,21.15-22.41h12.24l-13.3,38.42h-12.9l5.3-15.31-11.5,11.15h-10.13l-3.75-11.1-5.25,15.26h-12.9l13.3-38.42Z"/>
        <path class="cls-2" d="m788.29,393.96h-35.04c-2.64,0-4.98,1.55-5.77,3.84l-9.51,27.46c-1.22,3.53,1.69,7.12,5.77,7.12h31.25l3.22-9.28h-26.58l1.08-3.14-3.2-2.9h8.28,0s19.55,0,19.55,0l2.69-7.79h-23.62l.79-2.27-4.14-3.75h5.44s26.58-.01,26.58-.01l3.22-9.29Z"/>
        <path class="cls-2" d="m894.79,393.96h-35.04c-2.64,0-4.98,1.55-5.77,3.84l-9.51,27.46c-1.22,3.53,1.69,7.12,5.77,7.12h31.25l3.22-9.28h-26.58l1.08-3.14-3.2-2.9h8.28,0s19.55,0,19.55,0l2.69-7.79h-23.62l.79-2.27-4.14-3.75h5.44s26.58-.01,26.58-.01l3.22-9.29Z"/>
      </g>
      <path class="cls-2" d="m178.3,396.52c-1.49-1.71-3.75-2.56-6.77-2.56h-32.9l-13.3,38.42h12.9l4.34-12.59h6.25l6.72,12.59h14.81l-7.97-12.59h.26c3.73,0,6.74-.86,9.05-2.59,2.3-1.72,3.88-3.78,4.73-6.16l2.86-8.32c.84-2.42.52-4.48-.97-6.19Zm-12.37,7.42l-2.17,6.3c-.14.46-.49.69-1.06.69h-17.04l1.3-3.78-4.29-3.89h5.64s17.04-.01,17.04-.01c.57,0,.76.23.58.69Z"/>
      <polygon class="cls-2" points="84.97 393.96 81.75 403.25 97.68 403.25 87.59 432.38 100.49 432.38 109.14 407.39 104.58 403.26 110.57 403.26 110.57 403.25 126.5 403.25 129.71 393.96 84.97 393.96"/>
      <path class="cls-2" d="m74.86,396.5c-1.49-1.69-3.74-2.53-6.77-2.53h-22.97c-3.03,0-5.66.85-7.91,2.53-2.24,1.69-3.78,3.76-4.62,6.22l-2.03,5.98c-.88,2.45-.57,4.53.94,6.22,1.51,1.69,3.77,2.53,6.8,2.53h18.69c.57,0,.76.23.58.69l-1.48,4.27c-.14.46-.49.69-1.06.69h-15.73c-.57,0-.79-.23-.65-.69l.8-2.19h-12.9l-1.17,3.42c-.88,2.45-.57,4.53.94,6.22,1.51,1.69,3.77,2.53,6.8,2.53h23.29c3.03,0,5.6-.84,7.71-2.53,2.11-1.69,3.61-3.76,4.49-6.22l2.03-5.98c.88-2.45.56-4.53-.94-6.22-1.51-1.69-3.77-2.53-6.8-2.53h-18.69c-.57,0-.79-.23-.65-.69l.46-1.34-3.99-3.61h6.02s.07-.01.11-.01h15.73c.57,0,.77.23.58.69l-.73,2.19h12.9l1.17-3.42c.83-2.45.51-4.53-.98-6.22Z"/>
      <path class="cls-2" d="m191.62,393.96h12.9l-13.3,38.42h-12.9l13.3-38.42Z"/>
      <path class="cls-2" d="m201.89,432.38l13.3-38.42h12.9l-3.52,10.19,15.16-10.19h15.33l-20.9,13.82,8.79,24.6h-14.74l-5.54-17.08-2.59,1.71-5.29,15.37h-12.9Z"/>
      <path class="cls-2" d="m301.58,393.96h-35.04c-2.64,0-4.98,1.55-5.77,3.84l-9.51,27.46c-1.22,3.53,1.69,7.12,5.77,7.12h31.25l3.22-9.28h-26.58l1.08-3.14-3.2-2.9h8.28,0s19.55,0,19.55,0l2.69-7.79h-23.62l.79-2.27-4.14-3.75h5.44s26.58-.01,26.58-.01l3.22-9.29Z"/>
      <g>
        <polygon class="cls-2" points="516.47 393.96 513.25 403.25 529.18 403.25 519.1 432.38 531.99 432.38 540.64 407.39 536.09 403.26 542.07 403.26 542.07 403.25 558 403.25 561.22 393.96 516.47 393.96"/>
        <path class="cls-2" d="m383.63,393.96h12.9l-13.3,38.42h-12.9l13.3-38.42Z"/>
        <path class="cls-2" d="m451.92,393.96h-34.66c-2.81,0-5.37.81-7.69,2.43-2.32,1.62-3.93,3.73-4.83,6.32l-8.46,24.55c-.49,1.42-.3,2.63.58,3.63.88,1,2.2,1.49,3.95,1.49h30.07c5.44,0,9.18-2.92,11.21-8.75l5.16-14.99h-24.28l-1.12,3.21c-.78,2.24,1.07,4.53,3.66,4.53h6.27l-2.09,6.03c-.14.46-.53.69-1.19.69h-17.37c-.35,0-.49-.14-.41-.43l5.39-15.61-4.19-3.8h6.28s.07-.01.11-.01h30.38l3.22-9.29Z"/>
        <polygon class="cls-2" points="494.75 393.96 489.74 408.37 470.72 408.37 475.73 393.96 462.83 393.96 449.53 432.38 462.43 432.38 466.27 421.25 462.31 417.66 467.51 417.66 467.51 417.66 486.53 417.66 481.45 432.38 494.35 432.38 507.64 393.96 494.75 393.96"/>
        <path class="cls-2" d="m374.71,393.96h-33.46c-2.64,0-4.98,1.55-5.77,3.84l-11.97,34.58h12.9l4.19-12.11-3.54-3.21h8.28,0s18.22,0,18.22,0l2.69-7.79h-21.85l.85-2.45-3.94-3.57h5.18s25.01-.01,25.01-.01l3.22-9.29Z"/>
      </g>
    </g>
    <path class="cls-2" d="m181.04,270.9h129.08c16.77,0,31.01-4.68,42.72-14.04,11.7-9.36,19.99-20.85,24.86-34.45l11.24-33.12c4.87-13.6,3.13-25.08-5.22-34.45-8.35-9.36-20.91-14.05-37.69-14.05h-103.55c-3.16,0-4.36-1.28-3.6-3.84l2.57-7.41-22.11-20.02h33.34c.22-.01.4-.07.63-.07h87.15c3.16,0,4.24,1.28,3.24,3.84l-4.04,12.12h71.47l6.48-18.92c4.63-13.6,2.83-25.08-5.4-34.45-8.23-9.36-20.73-14.05-37.5-14.05H119.15l58.89,48.49-11.24,33.12c-4.87,13.6-3.13,25.09,5.22,34.45,8.35,9.36,20.91,14.04,37.69,14.04h103.56c3.15,0,4.24,1.29,3.24,3.84l-8.19,23.65c-.76,2.56-2.72,3.84-5.88,3.84h-87.15c-3.16,0-4.37-1.28-3.6-3.84l4.41-12.12h-71.47l-6.48,18.92c-4.87,13.6-3.13,25.09,5.22,34.45,8.35,9.37,20.91,14.04,37.69,14.04Z"/>
    <polygon class="cls-2" points="711.33 190.54 811.93 333.43 901.41 333.43 771.99 144.51 928.86 1.62 839.5 1.62 735.5 102.83 700.08 58.01 413.22 58.01 443.63 85.55 355.46 333.15 426.92 333.15 474.17 203.81 454.55 186.03 500.41 186.03 500.41 186.04 601.38 186.04 616.31 142.87 495.25 142.87 499.94 129.31 478.09 109.53 506.78 109.53 506.8 109.46 645.36 109.46 645.38 109.41 676.41 147.38 540.38 271.56 629.01 271.56 711.33 190.54"/>
    <path class="cls-2" d="m200.9,519.42l-1.63-45.33h0l-.62-17.47h-18.49l-1.53,2.71s-.02.03-.03.04l-8.06,14.25-.08.15h0l-25.16,44.48-10.02,17.15h19.37l8.01-15.98h18.48l-.18,13.11c0,.22.01.4.03.59l-.03,2.28h20.62l-.67-15.97Zm-19.06-28.65l-.52,16.64h-12.27l8.4-16.64,4.66-9.47h.15l-.42,9.47Zm-34.3-34.15l-21.04,78.77h-19.52l9.14-34.04h-20.12l-8.35,31.18c-.07.27-.15.51-.24.73l-.57,2.13h-19.52l14.25-53.09,6.11-22.82c.01-.05.03-.09.05-.15l.73-2.72h19.42l-.49,1.85c-.02.3-.06.63-.17,1.02l-8,29.86h20.12l8.78-32.72h19.42Zm560.04,0l-21.04,78.77h-19.52l9.14-34.04h-20.12l-8.35,31.18c-.07.27-.15.52-.25.75l-.57,2.12h-19.52l14.89-55.49,5.47-20.42s.03-.08.04-.13l.73-2.73h19.42l-.49,1.84c-.02.3-.06.63-.17,1.02l-8,29.86h20.12l8.78-32.72h19.42Zm-412.68,31.16l-7.37,27.51-5.27,20.1h-18.9l8.5-31.17,2.69-10.03h-.15l-18.86,24.02c-1.62,2.09-2.65,2.53-5.53,2.53h-.3c-2.88,0-3.67-.44-4.17-2.53l-5.08-24.02h-.15l-4.58,17.07-6.33,24.13h-18.9l.67-2.51c.03-.12.04-.23.07-.36l11.99-44.73h-.07l8.33-31.18h18.74l6.36,31.17,1.21,5.51,26.06-34.01,2-2.68h17.43l-8.42,31.16Zm265.2-21.29l-17.7,66.04c-.59,2.2-1.68,2.87-4.71,2.87h-6.36c-3.18,0-4.09-.55-4.74-2.64l-12.98-40.32h-.15l-7.31,27.28-4.17,15.69h-18.82l3.7-13.81,14.75-55.03h0l.13-.49,1.76-6.59s.01-.04.02-.06l.75-2.8h15.91l1.4,4.6,11.24,36.39h.15l10.21-38.12s.02-.04.02-.07l.75-2.8h18.79l-2.66,9.87Zm-201.7-9.87h-37.28l-8.33,31.18h.14l-10.17,37.96-2.85,9.63h19.75l.52-1.97c.12-.27.23-.56.32-.89l7.47-27.87h17.57c13.33,0,19.26-5.73,21.21-13l5.87-21.92c1.95-7.27-.88-13.11-14.21-13.11Zm-6.04,15.75l-4.4,16.42c-.53,1.98-3.09,3.64-5.52,3.64h-11.21l5.34-19.94-10.25-3.75h22.46c2.42,0,4.1,1.65,3.57,3.64Zm-282.11-2.64l-.98,3.65-2.5,9.97h-18.92l.57-2.15c.03-.18.06-.36.12-.56l3.19-11.9h-29.86l11.33,4.14-13.5,50.39h17.42l.73-2.73h-.05l3.7-13.97h18.71l-1.12,4.47c-.03.3-.09.62-.19.99l-.95,3.53-1.25,4.97h-.09l-.47,1.74c-1.95,7.27-7.91,13.11-21.08,13.11H14.77c-13.33,0-16.16-5.84-14.21-13.11l14.08-52.55c1.95-7.27,7.91-13.11,21.24-13.11h20.3c13.18,0,16.01,5.84,14.06,13.11Zm399.04-13.11h-25.15c-13.33,0-19.29,5.84-21.24,13.11l-14.08,52.55c-1.95,7.27.88,13.11,14.21,13.11h25.15c13.33,0,19.29-5.84,21.24-13.11l14.08-52.55c1.95-7.27-.88-13.11-14.21-13.11Zm-19.68,66.66h-21.66l13.65-50.94-9.84-3.6h32.47l-14.61,54.54Zm350.37-66.66h-37.13l-7.62,28.5-12.27,45.79-1.33,4.48h19.75l3.76-14.31,4.4-16.43h17.57c13.33,0,19.26-5.73,21.21-13l5.87-21.92c1.95-7.27-.88-13.11-14.21-13.11Zm-6.04,15.75l-4.4,16.42c-.53,1.98-3.1,3.64-5.52,3.64h-11.21l5.32-19.86-10.45-3.82h22.69c2.42,0,4.1,1.65,3.57,3.64Zm-164.6-3.77h0s-.01.05-.01.05c-.07.36-.15.71-.25,1.08l-1.18,4.41c-.08.31-.17.59-.27.84l-1.49,5.54h-18.92l2.28-8.61c.17-1.76-1.41-3.16-3.63-3.16h-6.67c-.43,0-.86.06-1.28.15l.08-.15h-13.54l9.18,3.36c-.03.09-.09.18-.11.28l-2.98,11.13c-1,3.75.46,5.07,5.43,5.18l10.79.44c12.88.55,16.19,5.73,14.15,13.33l-5.31,19.83c-1.95,7.27-7.91,13.11-21.24,13.11h-21.36c-13.33,0-16.16-5.84-14.21-13.11l.26-.98h0l3.7-13.97h18.71l-3.28,13.09c.03,1.62,1.56,2.86,3.66,2.86h9.39c2.42,0,4.99-1.65,5.52-3.64l3.39-12.67c1-3.75-.25-4.74-5.34-4.96l-10.79-.44c-12.88-.55-16.22-5.62-14.18-13.22l4.99-18.62c1.95-7.27,7.91-13.11,21.24-13.11h18.79c12.63,0,15.83,5.24,14.47,11.98Zm250.14,1.13l-1.18,4.41c-.05.2-.11.37-.17.55l-1.62,5.83h-18.92l2.33-8.79c.05-1.68-1.5-2.99-3.66-2.99h-6.67s-.08,0-.12,0h0s-13.54,0-13.54,0l8.23,3.01c-.1.2-.19.41-.25.62l-2.98,11.13c-1,3.75.46,5.07,5.43,5.18l10.79.44c12.88.55,16.19,5.73,14.15,13.33l-5.31,19.83c-1.95,7.27-7.91,13.11-21.24,13.11h-21.36c-13.33,0-16.16-5.84-14.21-13.11l.58-2.16,3.39-12.8h18.71l-3.28,13.1c.04,1.61,1.57,2.85,3.66,2.85h9.39c2.42,0,4.99-1.65,5.52-3.64l3.39-12.67c1-3.75-.25-4.74-5.34-4.96l-10.79-.44c-12.88-.55-16.22-5.62-14.18-13.22l4.99-18.62c1.95-7.27,7.91-13.11,21.24-13.11h18.79c13.33,0,16.16,5.84,14.21,13.11Zm-511.12,65.66l21.1-78.77h19.58l-21.14,78.77h-19.54Zm335.99,0l21.1-78.77h19.58l-21.14,78.77h-19.54Z"/>
    <g>
      <path class="cls-3" d="m879.91,137.42c-.01-1.73-.06-3.45-.23-5.18-1.66-17.45-11.16-33.62-27.21-48.17l-6.04,5.5c18.52,14.26,30.18,30.35,33.48,47.85Z"/>
      <path class="cls-3" d="m65.71,204.24c-3.52-37.01,30.4-73.67,89.33-104.34l-21.78-17.94C64.56,115.13,24.4,155.76,28.31,196.79c6.2,65.12,121.61,112.54,279.8,123.74-138.22-13.77-236.81-57.49-242.4-116.29Z"/>
      <path class="cls-3" d="m301.55,48.49c48.04-11.22,101.24-19.44,157.5-23.7,123.55-9.37,236.17,2.3,313.91,28.31l9.14-8.89C700.74,13.34,576.43-1.09,439.22,9.31c-80.76,6.12-155.5,20.05-218.49,39.18h80.82Z"/>
    </g>
    <g>
      <path class="cls-1" d="m650.7,326.28c-49.34,10.11-101.43,17.29-154.8,21.34C244.66,366.67,31.75,311.05,8.2,222.56c31.84,63.78,165.75,106.69,336.88,111.38l1.35-3.8c-71.2-1.89-137.46-10.46-193.29-25.33C66.87,281.84,14.64,246.39,6.04,205.02c-.2-.95-1.1-1.61-2.05-1.51-.97.09-1.71.9-1.72,1.87-.03,2.65.05,4.97.25,7.1,4.48,47.11,58.54,87.45,152.22,113.59,68.72,19.18,152.79,29.1,243.24,29.1,32.06,0,64.93-1.25,98.19-3.77,53.54-4.06,105.78-11.26,155.28-21.4,1.03-.21,1.69-1.22,1.48-2.25-.21-1.03-1.21-1.69-2.25-1.48Z"/>
      <path class="cls-1" d="m642.59,304.94c1.02-.24,1.66-1.26,1.43-2.29-.24-1.02-1.25-1.66-2.29-1.43-54.19,12.55-112.14,21.22-172.23,25.77-10.34.78-20.65,1.43-30.91,1.96l-1.42,3.88c10.79-.54,21.66-1.21,32.61-2.04,60.29-4.57,118.43-13.27,172.8-25.86Z"/>
    </g>
    <g>
      <path class="cls-1" d="m906.76,130.15c-2.09-21.99-15.59-42.31-38.81-60.17l-2.96,2.69c23.03,17.49,36,37.09,37.98,57.84,3,31.54-19.32,64.02-64.57,94.1l2.17,3.16c45.4-30.27,69.38-64.08,66.19-97.62Z"/>
      <path class="cls-1" d="m753.71,267.27c-33.26,13-70.91,24.45-111.98,33.96-1.02.24-1.66,1.26-1.43,2.29.24,1.02,1.26,1.67,2.29,1.43,42.07-9.74,80.11-21.39,113.4-34.44l-2.27-3.23Z"/>
      <path class="cls-1" d="m772.07,293.35c-36.19,12.67-76.92,23.82-121.37,32.93-1.03.21-1.69,1.22-1.48,2.25.18.9.98,1.52,1.86,1.52.13,0,.25-.01.38-.04,44.63-9.15,85.9-20.41,122.87-33.43l-2.27-3.22Z"/>
      <path class="cls-1" d="m956.58,140.08c-3-31.55-28.35-60.24-73.67-83.73l-3,2.74c44.9,22.98,69.98,50.86,72.88,81.36,3.78,39.73-30.75,80.04-93.46,114.72l2.1,3.07c4.8-2.66,9.47-5.36,13.97-8.11,56.67-34.51,84.74-72.57,81.17-110.05Z"/>
      <path class="cls-1" d="m638.74,3.8c58.39,5.96,110.25,16.76,152.43,31.57l3.2-3.11c-19.51-6.93-41.25-13.04-65.04-18.22,24.42,4,47.4,8.91,68.71,14.65l3.17-3.09C754.41,12.8,699.5,4.09,639.06,0c-1.01-.04-1.94.7-2.02,1.74-.09,1.04.67,1.95,1.7,2.06Z"/>
    </g>
  </g>
</svg>